<?xml version="1.0" encoding="UTF-8" standalone="no"?>
<!DOCTYPE svg PUBLIC "-//W3C//DTD SVG 1.1//EN"
 "http://www.w3.org/Graphics/SVG/1.1/DTD/svg11.dtd">
<!-- Generated by graphviz version 2.38.0 (20140413.2041)
 -->
<!-- Title: G Pages: 1 -->
<svg width="581pt" height="3102pt"
 viewBox="0.00 0.00 581.08 3102.00" xmlns="http://www.w3.org/2000/svg" xmlns:xlink="http://www.w3.org/1999/xlink">
<g id="graph0" class="graph" transform="scale(1 1) rotate(0) translate(4 3098)">
<title>G</title>
<polygon fill="white" stroke="none" points="-4,4 -4,-3098 577.084,-3098 577.084,4 -4,4"/>
<g id="clust1" class="cluster"><title>cluster_Global</title>
<path fill="none" stroke="gray" d="M20,-260C20,-260 553.084,-260 553.084,-260 559.084,-260 565.084,-266 565.084,-272 565.084,-272 565.084,-3074 565.084,-3074 565.084,-3080 559.084,-3086 553.084,-3086 553.084,-3086 20,-3086 20,-3086 14,-3086 8,-3080 8,-3074 8,-3074 8,-272 8,-272 8,-266 14,-260 20,-260"/>
<text text-anchor="middle" x="286.542" y="-3073.2" font-family="Times,serif" font-size="11.00" fill="gray">\</text>
</g>
<!-- \\html -->
<g id="node1" class="node"><title>\\html</title>
<polygon fill="none" stroke="black" points="73.5,-2896 19.5,-2896 19.5,-2860 73.5,-2860 73.5,-2896"/>
<text text-anchor="middle" x="46.5" y="-2875.2" font-family="Times,serif" font-size="11.00">html</text>
</g>
<!-- \\html_inputfield -->
<g id="node2" class="node"><title>\\html_inputfield</title>
<polygon fill="none" stroke="black" points="282.042,-3004 194.042,-3004 194.042,-2968 282.042,-2968 282.042,-3004"/>
<text text-anchor="middle" x="238.042" y="-2983.2" font-family="Times,serif" font-size="11.00">html_inputfield</text>
</g>
<!-- \\html_inputfield&#45;&gt;\\html -->
<g id="edge1" class="edge"><title>\\html_inputfield&#45;&gt;\\html</title>
<path fill="none" stroke="black" d="M193.664,-2976.2C179.007,-2971.98 162.857,-2966.31 149,-2959 120.785,-2944.11 92.7505,-2920.93 73.3171,-2903.18"/>
<polygon fill="none" stroke="black" points="75.503,-2900.43 65.7965,-2896.19 70.7361,-2905.56 75.503,-2900.43"/>
</g>
<!-- \\html_passwordfield -->
<g id="node3" class="node"><title>\\html_passwordfield</title>
<polygon fill="none" stroke="black" points="532.084,-3004 424.084,-3004 424.084,-2968 532.084,-2968 532.084,-3004"/>
<text text-anchor="middle" x="478.084" y="-2983.2" font-family="Times,serif" font-size="11.00">html_passwordfield</text>
</g>
<!-- \\html_passwordfield&#45;&gt;\\html_inputfield -->
<g id="edge2" class="edge"><title>\\html_passwordfield&#45;&gt;\\html_inputfield</title>
<path fill="none" stroke="black" d="M423.959,-2986C384.715,-2986 331.513,-2986 292.249,-2986"/>
<polygon fill="none" stroke="black" points="292.077,-2982.5 282.076,-2986 292.076,-2989.5 292.077,-2982.5"/>
</g>
<!-- \\html_hiddenfield -->
<g id="node4" class="node"><title>\\html_hiddenfield</title>
<polygon fill="none" stroke="black" points="286.042,-2788 190.042,-2788 190.042,-2752 286.042,-2752 286.042,-2788"/>
<text text-anchor="middle" x="238.042" y="-2767.2" font-family="Times,serif" font-size="11.00">html_hiddenfield</text>
</g>
<!-- \\html_hiddenfield&#45;&gt;\\html -->
<g id="edge3" class="edge"><title>\\html_hiddenfield&#45;&gt;\\html</title>
<path fill="none" stroke="black" d="M189.591,-2781C176.06,-2785.07 161.584,-2790.36 149,-2797 120.785,-2811.89 92.7505,-2835.07 73.3171,-2852.82"/>
<polygon fill="none" stroke="black" points="70.7361,-2850.44 65.7965,-2859.81 75.503,-2855.57 70.7361,-2850.44"/>
</g>
<!-- \\html_radiobutton -->
<g id="node5" class="node"><title>\\html_radiobutton</title>
<polygon fill="none" stroke="black" points="527.084,-2950 429.084,-2950 429.084,-2914 527.084,-2914 527.084,-2950"/>
<text text-anchor="middle" x="478.084" y="-2929.2" font-family="Times,serif" font-size="11.00">html_radiobutton</text>
</g>
<!-- \\html_radiobutton&#45;&gt;\\html_inputfield -->
<g id="edge4" class="edge"><title>\\html_radiobutton&#45;&gt;\\html_inputfield</title>
<path fill="none" stroke="black" d="M428.913,-2942.93C389.253,-2951.92 333.093,-2964.66 292.141,-2973.95"/>
<polygon fill="none" stroke="black" points="291.317,-2970.55 282.34,-2976.18 292.866,-2977.38 291.317,-2970.55"/>
</g>
<!-- \\html_checkbox -->
<g id="node6" class="node"><title>\\html_checkbox</title>
<polygon fill="none" stroke="black" points="522.584,-3058 433.584,-3058 433.584,-3022 522.584,-3022 522.584,-3058"/>
<text text-anchor="middle" x="478.084" y="-3037.2" font-family="Times,serif" font-size="11.00">html_checkbox</text>
</g>
<!-- \\html_checkbox&#45;&gt;\\html_inputfield -->
<g id="edge5" class="edge"><title>\\html_checkbox&#45;&gt;\\html_inputfield</title>
<path fill="none" stroke="black" d="M433.424,-3030.1C393.661,-3021.08 334.835,-3007.73 292.319,-2998.09"/>
<polygon fill="none" stroke="black" points="292.952,-2994.64 282.426,-2995.84 291.404,-3001.47 292.952,-2994.64"/>
</g>
<!-- \\html_textarea -->
<g id="node7" class="node"><title>\\html_textarea</title>
<polygon fill="none" stroke="black" points="278.042,-2950 198.042,-2950 198.042,-2914 278.042,-2914 278.042,-2950"/>
<text text-anchor="middle" x="238.042" y="-2929.2" font-family="Times,serif" font-size="11.00">html_textarea</text>
</g>
<!-- \\html_textarea&#45;&gt;\\html -->
<g id="edge6" class="edge"><title>\\html_textarea&#45;&gt;\\html</title>
<path fill="none" stroke="black" d="M197.769,-2920.81C164.208,-2911.25 116.311,-2897.6 83.6741,-2888.31"/>
<polygon fill="none" stroke="black" points="84.2277,-2884.82 73.6514,-2885.45 82.3097,-2891.56 84.2277,-2884.82"/>
</g>
<!-- \\html_select -->
<g id="node8" class="node"><title>\\html_select</title>
<polygon fill="none" stroke="black" points="273.042,-2896 203.042,-2896 203.042,-2860 273.042,-2860 273.042,-2896"/>
<text text-anchor="middle" x="238.042" y="-2875.2" font-family="Times,serif" font-size="11.00">html_select</text>
</g>
<!-- \\html_select&#45;&gt;\\html -->
<g id="edge7" class="edge"><title>\\html_select&#45;&gt;\\html</title>
<path fill="none" stroke="black" d="M202.717,-2878C169.073,-2878 117.984,-2878 83.7069,-2878"/>
<polygon fill="none" stroke="black" points="83.6467,-2874.5 73.6467,-2878 83.6467,-2881.5 83.6467,-2874.5"/>
</g>
<!-- \\html_table -->
<g id="node9" class="node"><title>\\html_table</title>
<polygon fill="none" stroke="black" points="271.042,-2842 205.042,-2842 205.042,-2806 271.042,-2806 271.042,-2842"/>
<text text-anchor="middle" x="238.042" y="-2821.2" font-family="Times,serif" font-size="11.00">html_table</text>
</g>
<!-- \\html_table&#45;&gt;\\html -->
<g id="edge8" class="edge"><title>\\html_table&#45;&gt;\\html</title>
<path fill="none" stroke="black" d="M204.889,-2833.16C171.243,-2842.75 118.539,-2857.76 83.5158,-2867.74"/>
<polygon fill="none" stroke="black" points="82.3547,-2864.43 73.6964,-2870.54 84.2727,-2871.16 82.3547,-2864.43"/>
</g>
<!-- \\rcube -->
<g id="node10" class="node"><title>\\rcube</title>
<polygon fill="none" stroke="black" points="505.084,-2896 451.084,-2896 451.084,-2860 505.084,-2860 505.084,-2896"/>
<text text-anchor="middle" x="478.084" y="-2875.2" font-family="Times,serif" font-size="11.00">rcube</text>
</g>
<!-- \\rcube_dummy_plugin_api -->
<g id="node11" class="node"><title>\\rcube_dummy_plugin_api</title>
<polygon fill="none" stroke="black" points="548.584,-2842 407.584,-2842 407.584,-2806 548.584,-2806 548.584,-2842"/>
<text text-anchor="middle" x="478.084" y="-2821.2" font-family="Times,serif" font-size="11.00">rcube_dummy_plugin_api</text>
</g>
<!-- \\rcube_addressbook -->
<g id="node12" class="node"><title>\\rcube_addressbook</title>
<polygon fill="none" stroke="black" points="292.042,-2329 184.042,-2329 184.042,-2293 292.042,-2293 292.042,-2329"/>
<text text-anchor="start" x="214.542" y="-2314.2" font-family="Times,serif" font-size="11.00">«abstract»</text>
<text text-anchor="start" x="192.042" y="-2302.2" font-family="Times,serif" font-size="11.00">rcube_addressbook</text>
</g>
<!-- \\rcube_base_replacer -->
<g id="node13" class="node"><title>\\rcube_base_replacer</title>
<polygon fill="none" stroke="black" points="534.584,-2788 421.584,-2788 421.584,-2752 534.584,-2752 534.584,-2788"/>
<text text-anchor="middle" x="478.084" y="-2767.2" font-family="Times,serif" font-size="11.00">rcube_base_replacer</text>
</g>
<!-- \\rcube_browser -->
<g id="node14" class="node"><title>\\rcube_browser</title>
<polygon fill="none" stroke="black" points="521.084,-2734 435.084,-2734 435.084,-2698 521.084,-2698 521.084,-2734"/>
<text text-anchor="middle" x="478.084" y="-2713.2" font-family="Times,serif" font-size="11.00">rcube_browser</text>
</g>
<!-- \\rcube_cache -->
<g id="node15" class="node"><title>\\rcube_cache</title>
<polygon fill="none" stroke="black" points="516.084,-2680 440.084,-2680 440.084,-2644 516.084,-2644 516.084,-2680"/>
<text text-anchor="middle" x="478.084" y="-2659.2" font-family="Times,serif" font-size="11.00">rcube_cache</text>
</g>
<!-- \\rcube_cache_shared -->
<g id="node16" class="node"><title>\\rcube_cache_shared</title>
<polygon fill="none" stroke="black" points="534.584,-2626 421.584,-2626 421.584,-2590 534.584,-2590 534.584,-2626"/>
<text text-anchor="middle" x="478.084" y="-2605.2" font-family="Times,serif" font-size="11.00">rcube_cache_shared</text>
</g>
<!-- \\rcube_charset -->
<g id="node17" class="node"><title>\\rcube_charset</title>
<polygon fill="none" stroke="black" points="519.084,-2572 437.084,-2572 437.084,-2536 519.084,-2536 519.084,-2572"/>
<text text-anchor="middle" x="478.084" y="-2551.2" font-family="Times,serif" font-size="11.00">rcube_charset</text>
</g>
<!-- \\rcube_config -->
<g id="node18" class="node"><title>\\rcube_config</title>
<polygon fill="none" stroke="black" points="517.084,-2518 439.084,-2518 439.084,-2482 517.084,-2482 517.084,-2518"/>
<text text-anchor="middle" x="478.084" y="-2497.2" font-family="Times,serif" font-size="11.00">rcube_config</text>
</g>
<!-- \\rcube_contacts -->
<g id="node19" class="node"><title>\\rcube_contacts</title>
<polygon fill="none" stroke="black" points="521.584,-2302 434.584,-2302 434.584,-2266 521.584,-2266 521.584,-2302"/>
<text text-anchor="middle" x="478.084" y="-2281.2" font-family="Times,serif" font-size="11.00">rcube_contacts</text>
</g>
<!-- \\rcube_contacts&#45;&gt;\\rcube_addressbook -->
<g id="edge9" class="edge"><title>\\rcube_contacts&#45;&gt;\\rcube_addressbook</title>
<path fill="none" stroke="black" d="M434.527,-2288.83C397.711,-2293 343.969,-2299.1 302.147,-2303.84"/>
<polygon fill="none" stroke="black" points="301.603,-2300.38 292.061,-2304.99 302.392,-2307.34 301.603,-2300.38"/>
</g>
<!-- \\rcube_content_filter -->
<g id="node20" class="node"><title>\\rcube_content_filter</title>
<polygon fill="none" stroke="black" points="533.084,-898 423.084,-898 423.084,-862 533.084,-862 533.084,-898"/>
<text text-anchor="middle" x="478.084" y="-877.2" font-family="Times,serif" font-size="11.00">rcube_content_filter</text>
</g>
<!-- \\php_user_filter -->
<g id="node69" class="node"><title>\\php_user_filter</title>
<ellipse fill="none" stroke="black" cx="238.042" cy="-234" rx="70.6878" ry="18"/>
<text text-anchor="middle" x="238.042" y="-230.3" font-family="Times,serif" font-size="14.00" fill="gray">\php_user_filter</text>
</g>
<!-- \\rcube_content_filter&#45;&gt;\\php_user_filter -->
<g id="edge10" class="edge"><title>\\rcube_content_filter&#45;&gt;\\php_user_filter</title>
<path fill="none" stroke="black" d="M422.967,-870.146C413.82,-866.205 405.292,-860.696 399.084,-853 231.288,-644.985 503.906,-456.399 327.084,-256 323.144,-251.535 318.449,-247.908 313.306,-244.971"/>
<polygon fill="none" stroke="black" points="314.815,-241.813 304.285,-240.65 311.792,-248.126 314.815,-241.813"/>
</g>
<!-- \\rcube_csv2vcard -->
<g id="node21" class="node"><title>\\rcube_csv2vcard</title>
<polygon fill="none" stroke="black" points="525.584,-2356 430.584,-2356 430.584,-2320 525.584,-2320 525.584,-2356"/>
<text text-anchor="middle" x="478.084" y="-2335.2" font-family="Times,serif" font-size="11.00">rcube_csv2vcard</text>
</g>
<!-- \\rcube_db -->
<g id="node22" class="node"><title>\\rcube_db</title>
<polygon fill="none" stroke="black" points="77,-2518 16,-2518 16,-2482 77,-2482 77,-2518"/>
<text text-anchor="middle" x="46.5" y="-2497.2" font-family="Times,serif" font-size="11.00">rcube_db</text>
</g>
<!-- \\rcube_db_mssql -->
<g id="node23" class="node"><title>\\rcube_db_mssql</title>
<polygon fill="none" stroke="black" points="285.042,-2464 191.042,-2464 191.042,-2428 285.042,-2428 285.042,-2464"/>
<text text-anchor="middle" x="238.042" y="-2443.2" font-family="Times,serif" font-size="11.00">rcube_db_mssql</text>
</g>
<!-- \\rcube_db_mssql&#45;&gt;\\rcube_db -->
<g id="edge11" class="edge"><title>\\rcube_db_mssql&#45;&gt;\\rcube_db</title>
<path fill="none" stroke="black" d="M190.675,-2459.21C158.87,-2468.27 117.124,-2480.16 86.9227,-2488.77"/>
<polygon fill="none" stroke="black" points="85.8125,-2485.45 77.1542,-2491.55 87.7305,-2492.18 85.8125,-2485.45"/>
</g>
<!-- \\rcube_db_mysql -->
<g id="node24" class="node"><title>\\rcube_db_mysql</title>
<polygon fill="none" stroke="black" points="285.542,-2410 190.542,-2410 190.542,-2374 285.542,-2374 285.542,-2410"/>
<text text-anchor="middle" x="238.042" y="-2389.2" font-family="Times,serif" font-size="11.00">rcube_db_mysql</text>
</g>
<!-- \\rcube_db_mysql&#45;&gt;\\rcube_db -->
<g id="edge12" class="edge"><title>\\rcube_db_mysql&#45;&gt;\\rcube_db</title>
<path fill="none" stroke="black" d="M190.501,-2402.73C176.711,-2406.84 161.867,-2412.21 149,-2419 120.785,-2433.89 92.7505,-2457.07 73.3171,-2474.82"/>
<polygon fill="none" stroke="black" points="70.7361,-2472.44 65.7965,-2481.81 75.503,-2477.57 70.7361,-2472.44"/>
</g>
<!-- \\rcube_db_oracle -->
<g id="node25" class="node"><title>\\rcube_db_oracle</title>
<polygon fill="none" stroke="black" points="285.542,-2626 190.542,-2626 190.542,-2590 285.542,-2590 285.542,-2626"/>
<text text-anchor="middle" x="238.042" y="-2605.2" font-family="Times,serif" font-size="11.00">rcube_db_oracle</text>
</g>
<!-- \\rcube_db_oracle&#45;&gt;\\rcube_db -->
<g id="edge13" class="edge"><title>\\rcube_db_oracle&#45;&gt;\\rcube_db</title>
<path fill="none" stroke="black" d="M190.501,-2597.27C176.711,-2593.16 161.867,-2587.79 149,-2581 120.785,-2566.11 92.7505,-2542.93 73.3171,-2525.18"/>
<polygon fill="none" stroke="black" points="75.503,-2522.43 65.7965,-2518.19 70.7361,-2527.56 75.503,-2522.43"/>
</g>
<!-- \\rcube_db_pgsql -->
<g id="node26" class="node"><title>\\rcube_db_pgsql</title>
<polygon fill="none" stroke="black" points="284.042,-2572 192.042,-2572 192.042,-2536 284.042,-2536 284.042,-2572"/>
<text text-anchor="middle" x="238.042" y="-2551.2" font-family="Times,serif" font-size="11.00">rcube_db_pgsql</text>
</g>
<!-- \\rcube_db_pgsql&#45;&gt;\\rcube_db -->
<g id="edge14" class="edge"><title>\\rcube_db_pgsql&#45;&gt;\\rcube_db</title>
<path fill="none" stroke="black" d="M191.642,-2541.07C159.761,-2531.98 117.539,-2519.95 87.0398,-2511.26"/>
<polygon fill="none" stroke="black" points="87.7541,-2507.83 77.1778,-2508.46 85.8361,-2514.56 87.7541,-2507.83"/>
</g>
<!-- \\rcube_db_sqlite -->
<g id="node27" class="node"><title>\\rcube_db_sqlite</title>
<polygon fill="none" stroke="black" points="284.042,-2518 192.042,-2518 192.042,-2482 284.042,-2482 284.042,-2518"/>
<text text-anchor="middle" x="238.042" y="-2497.2" font-family="Times,serif" font-size="11.00">rcube_db_sqlite</text>
</g>
<!-- \\rcube_db_sqlite&#45;&gt;\\rcube_db -->
<g id="edge15" class="edge"><title>\\rcube_db_sqlite&#45;&gt;\\rcube_db</title>
<path fill="none" stroke="black" d="M191.642,-2500C159.9,-2500 117.906,-2500 87.4383,-2500"/>
<polygon fill="none" stroke="black" points="87.1778,-2496.5 77.1778,-2500 87.1778,-2503.5 87.1778,-2496.5"/>
</g>
<!-- \\rcube_db_sqlsrv -->
<g id="node28" class="node"><title>\\rcube_db_sqlsrv</title>
<polygon fill="none" stroke="black" points="525.084,-2464 431.084,-2464 431.084,-2428 525.084,-2428 525.084,-2464"/>
<text text-anchor="middle" x="478.084" y="-2443.2" font-family="Times,serif" font-size="11.00">rcube_db_sqlsrv</text>
</g>
<!-- \\rcube_db_sqlsrv&#45;&gt;\\rcube_db_mssql -->
<g id="edge16" class="edge"><title>\\rcube_db_sqlsrv&#45;&gt;\\rcube_db_mssql</title>
<path fill="none" stroke="black" d="M430.905,-2446C392.142,-2446 336.63,-2446 295.281,-2446"/>
<polygon fill="none" stroke="black" points="295.093,-2442.5 285.093,-2446 295.093,-2449.5 295.093,-2442.5"/>
</g>
<!-- \\rcube_enriched -->
<g id="node29" class="node"><title>\\rcube_enriched</title>
<polygon fill="none" stroke="black" points="522.584,-2248 433.584,-2248 433.584,-2212 522.584,-2212 522.584,-2248"/>
<text text-anchor="middle" x="478.084" y="-2227.2" font-family="Times,serif" font-size="11.00">rcube_enriched</text>
</g>
<!-- \\rcube_html2text -->
<g id="node30" class="node"><title>\\rcube_html2text</title>
<polygon fill="none" stroke="black" points="524.584,-2194 431.584,-2194 431.584,-2158 524.584,-2158 524.584,-2194"/>
<text text-anchor="middle" x="478.084" y="-2173.2" font-family="Times,serif" font-size="11.00">rcube_html2text</text>
</g>
<!-- \\rcube_image -->
<g id="node31" class="node"><title>\\rcube_image</title>
<polygon fill="none" stroke="black" points="516.584,-2140 439.584,-2140 439.584,-2104 516.584,-2104 516.584,-2140"/>
<text text-anchor="middle" x="478.084" y="-2119.2" font-family="Times,serif" font-size="11.00">rcube_image</text>
</g>
<!-- \\rcube_imap -->
<g id="node32" class="node"><title>\\rcube_imap</title>
<polygon fill="none" stroke="black" points="514.084,-2086 442.084,-2086 442.084,-2050 514.084,-2050 514.084,-2086"/>
<text text-anchor="middle" x="478.084" y="-2065.2" font-family="Times,serif" font-size="11.00">rcube_imap</text>
</g>
<!-- \\rcube_storage -->
<g id="node61" class="node"><title>\\rcube_storage</title>
<polygon fill="none" stroke="black" points="279.542,-2086 196.542,-2086 196.542,-2050 279.542,-2050 279.542,-2086"/>
<text text-anchor="start" x="214.542" y="-2071.2" font-family="Times,serif" font-size="11.00">«abstract»</text>
<text text-anchor="start" x="204.542" y="-2059.2" font-family="Times,serif" font-size="11.00">rcube_storage</text>
</g>
<!-- \\rcube_imap&#45;&gt;\\rcube_storage -->
<g id="edge17" class="edge"><title>\\rcube_imap&#45;&gt;\\rcube_storage</title>
<path fill="none" stroke="black" d="M441.96,-2068C401.802,-2068 335.718,-2068 289.925,-2068"/>
<polygon fill="none" stroke="black" points="289.904,-2064.5 279.904,-2068 289.904,-2071.5 289.904,-2064.5"/>
</g>
<!-- \\rcube_imap_cache -->
<g id="node33" class="node"><title>\\rcube_imap_cache</title>
<polygon fill="none" stroke="black" points="530.584,-2032 425.584,-2032 425.584,-1996 530.584,-1996 530.584,-2032"/>
<text text-anchor="middle" x="478.084" y="-2011.2" font-family="Times,serif" font-size="11.00">rcube_imap_cache</text>
</g>
<!-- \\rcube_mail_header -->
<g id="node34" class="node"><title>\\rcube_mail_header</title>
<polygon fill="none" stroke="black" points="531.584,-1978 424.584,-1978 424.584,-1942 531.584,-1942 531.584,-1978"/>
<text text-anchor="middle" x="478.084" y="-1957.2" font-family="Times,serif" font-size="11.00">rcube_mail_header</text>
</g>
<!-- \\rcube_message_header -->
<g id="node42" class="node"><title>\\rcube_message_header</title>
<polygon fill="none" stroke="black" points="301.042,-1978 175.042,-1978 175.042,-1942 301.042,-1942 301.042,-1978"/>
<text text-anchor="middle" x="238.042" y="-1957.2" font-family="Times,serif" font-size="11.00">rcube_message_header</text>
</g>
<!-- \\rcube_mail_header&#45;&gt;\\rcube_message_header -->
<g id="edge18" class="edge"><title>\\rcube_mail_header&#45;&gt;\\rcube_message_header</title>
<path fill="none" stroke="black" d="M424.55,-1960C391.26,-1960 347.753,-1960 311.24,-1960"/>
<polygon fill="none" stroke="black" points="311.142,-1956.5 301.142,-1960 311.142,-1963.5 311.142,-1956.5"/>
</g>
<!-- \\rcube_imap_generic -->
<g id="node35" class="node"><title>\\rcube_imap_generic</title>
<polygon fill="none" stroke="black" points="534.584,-1924 421.584,-1924 421.584,-1888 534.584,-1888 534.584,-1924"/>
<text text-anchor="middle" x="478.084" y="-1903.2" font-family="Times,serif" font-size="11.00">rcube_imap_generic</text>
</g>
<!-- \\rcube_imap_search -->
<g id="node36" class="node"><title>\\rcube_imap_search</title>
<polygon fill="none" stroke="black" points="532.084,-1870 424.084,-1870 424.084,-1834 532.084,-1834 532.084,-1870"/>
<text text-anchor="middle" x="478.084" y="-1849.2" font-family="Times,serif" font-size="11.00">rcube_imap_search</text>
</g>
<!-- \\rcube_imap_search_job -->
<g id="node37" class="node"><title>\\rcube_imap_search_job</title>
<polygon fill="none" stroke="black" points="543.084,-1816 413.084,-1816 413.084,-1780 543.084,-1780 543.084,-1816"/>
<text text-anchor="middle" x="478.084" y="-1795.2" font-family="Times,serif" font-size="11.00">rcube_imap_search_job</text>
</g>
<!-- \\rcube_ldap -->
<g id="node38" class="node"><title>\\rcube_ldap</title>
<polygon fill="none" stroke="black" points="512.584,-2410 443.584,-2410 443.584,-2374 512.584,-2374 512.584,-2410"/>
<text text-anchor="middle" x="478.084" y="-2389.2" font-family="Times,serif" font-size="11.00">rcube_ldap</text>
</g>
<!-- \\rcube_ldap&#45;&gt;\\rcube_addressbook -->
<g id="edge19" class="edge"><title>\\rcube_ldap&#45;&gt;\\rcube_addressbook</title>
<path fill="none" stroke="black" d="M443.483,-2380.57C406.829,-2368.09 347.329,-2347.85 301.946,-2332.4"/>
<polygon fill="none" stroke="black" points="302.793,-2329 292.198,-2329.09 300.538,-2335.62 302.793,-2329"/>
</g>
<!-- \\rcube_ldap_generic -->
<g id="node39" class="node"><title>\\rcube_ldap_generic</title>
<polygon fill="none" stroke="black" points="533.084,-844 423.084,-844 423.084,-808 533.084,-808 533.084,-844"/>
<text text-anchor="middle" x="478.084" y="-823.2" font-family="Times,serif" font-size="11.00">rcube_ldap_generic</text>
</g>
<!-- \\Net_LDAP3 -->
<g id="node70" class="node"><title>\\Net_LDAP3</title>
<ellipse fill="none" stroke="black" cx="238.042" cy="-180" rx="61.1893" ry="18"/>
<text text-anchor="middle" x="238.042" y="-176.3" font-family="Times,serif" font-size="14.00" fill="gray">\Net_LDAP3</text>
</g>
<!-- \\rcube_ldap_generic&#45;&gt;\\Net_LDAP3 -->
<g id="edge20" class="edge"><title>\\rcube_ldap_generic&#45;&gt;\\Net_LDAP3</title>
<path fill="none" stroke="black" d="M422.973,-816.141C413.826,-812.2 405.296,-806.693 399.084,-799 232.569,-592.786 497.251,-410.211 327.084,-207 321.054,-199.799 313.154,-194.481 304.561,-190.561"/>
<polygon fill="none" stroke="black" points="305.609,-187.212 295.021,-186.833 303.061,-193.732 305.609,-187.212"/>
</g>
<!-- \\rcube_ldap_result -->
<g id="node40" class="node"><title>\\rcube_ldap_result</title>
<polygon fill="none" stroke="black" points="528.584,-790 427.584,-790 427.584,-754 528.584,-754 528.584,-790"/>
<text text-anchor="middle" x="478.084" y="-769.2" font-family="Times,serif" font-size="11.00">rcube_ldap_result</text>
</g>
<!-- \\Net_LDAP3_Result -->
<g id="node71" class="node"><title>\\Net_LDAP3_Result</title>
<ellipse fill="none" stroke="black" cx="238.042" cy="-126" rx="89.0842" ry="18"/>
<text text-anchor="middle" x="238.042" y="-122.3" font-family="Times,serif" font-size="14.00" fill="gray">\Net_LDAP3_Result</text>
</g>
<!-- \\rcube_ldap_result&#45;&gt;\\Net_LDAP3_Result -->
<g id="edge21" class="edge"><title>\\rcube_ldap_result&#45;&gt;\\Net_LDAP3_Result</title>
<path fill="none" stroke="black" d="M427.387,-763.909C416.604,-759.901 406.286,-753.919 399.084,-745 232.569,-538.786 497.251,-356.211 327.084,-153 323.707,-148.966 319.743,-145.524 315.399,-142.587"/>
<polygon fill="none" stroke="black" points="317.044,-139.495 306.632,-137.539 313.552,-145.562 317.044,-139.495"/>
</g>
<!-- \\rcube_message -->
<g id="node41" class="node"><title>\\rcube_message</title>
<polygon fill="none" stroke="black" points="522.584,-1600 433.584,-1600 433.584,-1564 522.584,-1564 522.584,-1600"/>
<text text-anchor="middle" x="478.084" y="-1579.2" font-family="Times,serif" font-size="11.00">rcube_message</text>
</g>
<!-- \\rcube_message_header_sorter -->
<g id="node43" class="node"><title>\\rcube_message_header_sorter</title>
<polygon fill="none" stroke="black" points="557.084,-1546 399.084,-1546 399.084,-1510 557.084,-1510 557.084,-1546"/>
<text text-anchor="middle" x="478.084" y="-1525.2" font-family="Times,serif" font-size="11.00">rcube_message_header_sorter</text>
</g>
<!-- \\rcube_message_part -->
<g id="node44" class="node"><title>\\rcube_message_part</title>
<polygon fill="none" stroke="black" points="534.584,-1492 421.584,-1492 421.584,-1456 534.584,-1456 534.584,-1492"/>
<text text-anchor="middle" x="478.084" y="-1471.2" font-family="Times,serif" font-size="11.00">rcube_message_part</text>
</g>
<!-- \\rcube_mime -->
<g id="node45" class="node"><title>\\rcube_mime</title>
<polygon fill="none" stroke="black" points="515.584,-1438 440.584,-1438 440.584,-1402 515.584,-1402 515.584,-1438"/>
<text text-anchor="middle" x="478.084" y="-1417.2" font-family="Times,serif" font-size="11.00">rcube_mime</text>
</g>
<!-- \\rcube_output -->
<g id="node46" class="node"><title>\\rcube_output</title>
<polygon fill="none" stroke="black" points="517.584,-1384 438.584,-1384 438.584,-1348 517.584,-1348 517.584,-1384"/>
<text text-anchor="start" x="454.584" y="-1369.2" font-family="Times,serif" font-size="11.00">«abstract»</text>
<text text-anchor="start" x="446.584" y="-1357.2" font-family="Times,serif" font-size="11.00">rcube_output</text>
</g>
<!-- \\rcube_plugin -->
<g id="node47" class="node"><title>\\rcube_plugin</title>
<polygon fill="none" stroke="black" points="517.584,-1330 438.584,-1330 438.584,-1294 517.584,-1294 517.584,-1330"/>
<text text-anchor="start" x="454.584" y="-1315.2" font-family="Times,serif" font-size="11.00">«abstract»</text>
<text text-anchor="start" x="446.584" y="-1303.2" font-family="Times,serif" font-size="11.00">rcube_plugin</text>
</g>
<!-- \\rcube_plugin_api -->
<g id="node48" class="node"><title>\\rcube_plugin_api</title>
<polygon fill="none" stroke="black" points="527.584,-1276 428.584,-1276 428.584,-1240 527.584,-1240 527.584,-1276"/>
<text text-anchor="middle" x="478.084" y="-1255.2" font-family="Times,serif" font-size="11.00">rcube_plugin_api</text>
</g>
<!-- \\rcube_result_index -->
<g id="node49" class="node"><title>\\rcube_result_index</title>
<polygon fill="none" stroke="black" points="531.584,-1222 424.584,-1222 424.584,-1186 531.584,-1186 531.584,-1222"/>
<text text-anchor="middle" x="478.084" y="-1201.2" font-family="Times,serif" font-size="11.00">rcube_result_index</text>
</g>
<!-- \\rcube_result_multifolder -->
<g id="node50" class="node"><title>\\rcube_result_multifolder</title>
<polygon fill="none" stroke="black" points="543.584,-1168 412.584,-1168 412.584,-1132 543.584,-1132 543.584,-1168"/>
<text text-anchor="middle" x="478.084" y="-1147.2" font-family="Times,serif" font-size="11.00">rcube_result_multifolder</text>
</g>
<!-- \\rcube_result_set -->
<g id="node51" class="node"><title>\\rcube_result_set</title>
<polygon fill="none" stroke="black" points="524.584,-736 431.584,-736 431.584,-700 524.584,-700 524.584,-736"/>
<text text-anchor="middle" x="478.084" y="-715.2" font-family="Times,serif" font-size="11.00">rcube_result_set</text>
</g>
<!-- \\Iterator -->
<g id="node72" class="node"><title>\\Iterator</title>
<ellipse fill="none" stroke="black" cx="238.042" cy="-72" rx="40.0939" ry="18"/>
<text text-anchor="middle" x="238.042" y="-68.3" font-family="Times,serif" font-size="14.00" fill="gray">\Iterator</text>
</g>
<!-- \\rcube_result_set&#45;&gt;\\Iterator -->
<g id="edge22" class="edge"><title>\\rcube_result_set&#45;&gt;\\Iterator</title>
<path fill="none" stroke="black" stroke-dasharray="1,5" d="M431.448,-711.322C419.233,-707.35 407.187,-701.034 399.084,-691 232.569,-484.786 497.251,-302.211 327.084,-99 317.327,-87.3476 302.675,-80.6261 288.111,-76.7802"/>
<polygon fill="none" stroke="black" points="288.624,-73.3088 278.102,-74.5518 287.102,-80.1415 288.624,-73.3088"/>
</g>
<!-- \\ArrayAccess -->
<g id="node73" class="node"><title>\\ArrayAccess</title>
<ellipse fill="none" stroke="black" cx="238.042" cy="-18" rx="61.1893" ry="18"/>
<text text-anchor="middle" x="238.042" y="-14.3" font-family="Times,serif" font-size="14.00" fill="gray">\ArrayAccess</text>
</g>
<!-- \\rcube_result_set&#45;&gt;\\ArrayAccess -->
<g id="edge23" class="edge"><title>\\rcube_result_set&#45;&gt;\\ArrayAccess</title>
<path fill="none" stroke="black" stroke-dasharray="1,5" d="M431.384,-711.373C419.167,-707.403 407.136,-701.075 399.084,-691 218.722,-465.332 511.443,-267.415 327.084,-45 321.09,-37.7685 313.21,-32.4342 304.626,-28.5071"/>
<polygon fill="none" stroke="black" points="305.678,-25.1605 295.09,-24.7749 303.127,-31.6789 305.678,-25.1605"/>
</g>
<!-- \\rcube_result_thread -->
<g id="node52" class="node"><title>\\rcube_result_thread</title>
<polygon fill="none" stroke="black" points="533.084,-1060 423.084,-1060 423.084,-1024 533.084,-1024 533.084,-1060"/>
<text text-anchor="middle" x="478.084" y="-1039.2" font-family="Times,serif" font-size="11.00">rcube_result_thread</text>
</g>
<!-- \\rcube_session -->
<g id="node53" class="node"><title>\\rcube_session</title>
<polygon fill="none" stroke="black" points="519.584,-1006 436.584,-1006 436.584,-970 519.584,-970 519.584,-1006"/>
<text text-anchor="middle" x="478.084" y="-985.2" font-family="Times,serif" font-size="11.00">rcube_session</text>
</g>
<!-- \\rcube_smtp -->
<g id="node54" class="node"><title>\\rcube_smtp</title>
<polygon fill="none" stroke="black" points="513.584,-952 442.584,-952 442.584,-916 513.584,-916 513.584,-952"/>
<text text-anchor="middle" x="478.084" y="-931.2" font-family="Times,serif" font-size="11.00">rcube_smtp</text>
</g>
<!-- \\rcube_spellcheck_atd -->
<g id="node55" class="node"><title>\\rcube_spellcheck_atd</title>
<polygon fill="none" stroke="black" points="537.584,-1762 418.584,-1762 418.584,-1726 537.584,-1726 537.584,-1762"/>
<text text-anchor="middle" x="478.084" y="-1741.2" font-family="Times,serif" font-size="11.00">rcube_spellcheck_atd</text>
</g>
<!-- \\rcube_spellcheck_engine -->
<g id="node57" class="node"><title>\\rcube_spellcheck_engine</title>
<polygon fill="none" stroke="black" points="306.042,-1681 170.042,-1681 170.042,-1645 306.042,-1645 306.042,-1681"/>
<text text-anchor="start" x="214.542" y="-1666.2" font-family="Times,serif" font-size="11.00">«abstract»</text>
<text text-anchor="start" x="178.042" y="-1654.2" font-family="Times,serif" font-size="11.00">rcube_spellcheck_engine</text>
</g>
<!-- \\rcube_spellcheck_atd&#45;&gt;\\rcube_spellcheck_engine -->
<g id="edge24" class="edge"><title>\\rcube_spellcheck_atd&#45;&gt;\\rcube_spellcheck_engine</title>
<path fill="none" stroke="black" d="M423.959,-1725.92C387.859,-1713.64 339.949,-1697.34 301.941,-1684.4"/>
<polygon fill="none" stroke="black" points="302.599,-1680.93 292.005,-1681.02 300.344,-1687.56 302.599,-1680.93"/>
</g>
<!-- \\rcube_spellcheck_enchant -->
<g id="node56" class="node"><title>\\rcube_spellcheck_enchant</title>
<polygon fill="none" stroke="black" points="548.584,-1708 407.584,-1708 407.584,-1672 548.584,-1672 548.584,-1708"/>
<text text-anchor="middle" x="478.084" y="-1687.2" font-family="Times,serif" font-size="11.00">rcube_spellcheck_enchant</text>
</g>
<!-- \\rcube_spellcheck_enchant&#45;&gt;\\rcube_spellcheck_engine -->
<g id="edge25" class="edge"><title>\\rcube_spellcheck_enchant&#45;&gt;\\rcube_spellcheck_engine</title>
<path fill="none" stroke="black" d="M407.272,-1682.08C378.802,-1678.85 345.772,-1675.11 316.556,-1671.79"/>
<polygon fill="none" stroke="black" points="316.726,-1668.29 306.395,-1670.64 315.937,-1675.24 316.726,-1668.29"/>
</g>
<!-- \\rcube_spellcheck_googie -->
<g id="node58" class="node"><title>\\rcube_spellcheck_googie</title>
<polygon fill="none" stroke="black" points="546.584,-1654 409.584,-1654 409.584,-1618 546.584,-1618 546.584,-1654"/>
<text text-anchor="middle" x="478.084" y="-1633.2" font-family="Times,serif" font-size="11.00">rcube_spellcheck_googie</text>
</g>
<!-- \\rcube_spellcheck_googie&#45;&gt;\\rcube_spellcheck_engine -->
<g id="edge26" class="edge"><title>\\rcube_spellcheck_googie&#45;&gt;\\rcube_spellcheck_engine</title>
<path fill="none" stroke="black" d="M409.508,-1643.66C380.487,-1646.96 346.413,-1650.82 316.389,-1654.23"/>
<polygon fill="none" stroke="black" points="315.917,-1650.76 306.375,-1655.36 316.706,-1657.71 315.917,-1650.76"/>
</g>
<!-- \\rcube_spellcheck_pspell -->
<g id="node59" class="node"><title>\\rcube_spellcheck_pspell</title>
<polygon fill="none" stroke="black" points="544.084,-1114 412.084,-1114 412.084,-1078 544.084,-1078 544.084,-1114"/>
<text text-anchor="middle" x="478.084" y="-1093.2" font-family="Times,serif" font-size="11.00">rcube_spellcheck_pspell</text>
</g>
<!-- \\rcube_spellcheck_pspell&#45;&gt;\\rcube_spellcheck_engine -->
<g id="edge27" class="edge"><title>\\rcube_spellcheck_pspell&#45;&gt;\\rcube_spellcheck_engine</title>
<path fill="none" stroke="black" d="M411.915,-1112.83C407.211,-1115.7 402.847,-1119.06 399.084,-1123 255.421,-1273.3 239.999,-1546.46 238.896,-1634.7"/>
<polygon fill="none" stroke="black" points="235.396,-1634.73 238.825,-1644.75 242.396,-1634.78 235.396,-1634.73"/>
</g>
<!-- \\rcube_spellchecker -->
<g id="node60" class="node"><title>\\rcube_spellchecker</title>
<polygon fill="none" stroke="black" points="531.584,-682 424.584,-682 424.584,-646 531.584,-646 531.584,-682"/>
<text text-anchor="middle" x="478.084" y="-661.2" font-family="Times,serif" font-size="11.00">rcube_spellchecker</text>
</g>
<!-- \\rcube_string_replacer -->
<g id="node62" class="node"><title>\\rcube_string_replacer</title>
<polygon fill="none" stroke="black" points="537.584,-628 418.584,-628 418.584,-592 537.584,-592 537.584,-628"/>
<text text-anchor="middle" x="478.084" y="-607.2" font-family="Times,serif" font-size="11.00">rcube_string_replacer</text>
</g>
<!-- \\rcube_text2html -->
<g id="node63" class="node"><title>\\rcube_text2html</title>
<polygon fill="none" stroke="black" points="524.584,-574 431.584,-574 431.584,-538 524.584,-538 524.584,-574"/>
<text text-anchor="middle" x="478.084" y="-553.2" font-family="Times,serif" font-size="11.00">rcube_text2html</text>
</g>
<!-- \\rcube_tnef_decoder -->
<g id="node64" class="node"><title>\\rcube_tnef_decoder</title>
<polygon fill="none" stroke="black" points="533.084,-520 423.084,-520 423.084,-484 533.084,-484 533.084,-520"/>
<text text-anchor="middle" x="478.084" y="-499.2" font-family="Times,serif" font-size="11.00">rcube_tnef_decoder</text>
</g>
<!-- \\rcube_user -->
<g id="node65" class="node"><title>\\rcube_user</title>
<polygon fill="none" stroke="black" points="512.084,-466 444.084,-466 444.084,-430 512.084,-430 512.084,-466"/>
<text text-anchor="middle" x="478.084" y="-445.2" font-family="Times,serif" font-size="11.00">rcube_user</text>
</g>
<!-- \\rcube_utils -->
<g id="node66" class="node"><title>\\rcube_utils</title>
<polygon fill="none" stroke="black" points="512.084,-412 444.084,-412 444.084,-376 512.084,-376 512.084,-412"/>
<text text-anchor="middle" x="478.084" y="-391.2" font-family="Times,serif" font-size="11.00">rcube_utils</text>
</g>
<!-- \\rcube_vcard -->
<g id="node67" class="node"><title>\\rcube_vcard</title>
<polygon fill="none" stroke="black" points="515.084,-358 441.084,-358 441.084,-322 515.084,-322 515.084,-358"/>
<text text-anchor="middle" x="478.084" y="-337.2" font-family="Times,serif" font-size="11.00">rcube_vcard</text>
</g>
<!-- \\rcube_washtml -->
<g id="node68" class="node"><title>\\rcube_washtml</title>
<polygon fill="none" stroke="black" points="522.084,-304 434.084,-304 434.084,-268 522.084,-268 522.084,-304"/>
<text text-anchor="middle" x="478.084" y="-283.2" font-family="Times,serif" font-size="11.00">rcube_washtml</text>
</g>
</g>
</svg>
